<?xml version="1.0" encoding="UTF-8" standalone="no"?>
<!-- Created with Inkscape (http://www.inkscape.org/) -->

<svg
   xmlns:dc="http://purl.org/dc/elements/1.1/"
   xmlns:cc="http://creativecommons.org/ns#"
   xmlns:rdf="http://www.w3.org/1999/02/22-rdf-syntax-ns#"
   xmlns:svg="http://www.w3.org/2000/svg"
   xmlns="http://www.w3.org/2000/svg"
   xmlns:sodipodi="http://sodipodi.sourceforge.net/DTD/sodipodi-0.dtd"
   xmlns:inkscape="http://www.inkscape.org/namespaces/inkscape"
   version="1.1"
   id="svg2"
   xml:space="preserve"
   width="1056"
   height="816"
   viewBox="0 0 1056 816"
   sodipodi:docname="dendrogram-case30.svg"
   inkscape:version="0.92.2 5c3e80d, 2017-08-06"><metadata
     id="metadata8"><rdf:RDF><cc:Work
         rdf:about=""><dc:format>image/svg+xml</dc:format><dc:type
           rdf:resource="http://purl.org/dc/dcmitype/StillImage" /><dc:title></dc:title></cc:Work></rdf:RDF></metadata><defs
     id="defs6"><clipPath
       clipPathUnits="userSpaceOnUse"
       id="clipPath172"><path
         d="M 62.03,114.28 H 778.68 V 585.12 H 62.03 Z"
         id="path170"
         inkscape:connector-curvature="0" /></clipPath><clipPath
       clipPathUnits="userSpaceOnUse"
       id="clipPath192"><path
         d="M 62.03,114.28 H 778.68 V 585.12 H 62.03 Z"
         id="path190"
         inkscape:connector-curvature="0" /></clipPath><clipPath
       clipPathUnits="userSpaceOnUse"
       id="clipPath206"><path
         d="M 62.03,114.28 H 778.68 V 585.12 H 62.03 Z"
         id="path204"
         inkscape:connector-curvature="0" /></clipPath><clipPath
       clipPathUnits="userSpaceOnUse"
       id="clipPath216"><path
         d="M 62.03,114.28 H 778.68 V 585.12 H 62.03 Z"
         id="path214"
         inkscape:connector-curvature="0" /></clipPath><clipPath
       clipPathUnits="userSpaceOnUse"
       id="clipPath228"><path
         d="M 62.03,114.28 H 778.68 V 585.12 H 62.03 Z"
         id="path226"
         inkscape:connector-curvature="0" /></clipPath><clipPath
       clipPathUnits="userSpaceOnUse"
       id="clipPath238"><path
         d="M 62.03,114.28 H 778.68 V 585.12 H 62.03 Z"
         id="path236"
         inkscape:connector-curvature="0" /></clipPath><clipPath
       clipPathUnits="userSpaceOnUse"
       id="clipPath270"><path
         d="M 62.03,114.28 H 778.68 V 585.12 H 62.03 Z"
         id="path268"
         inkscape:connector-curvature="0" /></clipPath></defs><sodipodi:namedview
     pagecolor="#ffffff"
     bordercolor="#666666"
     borderopacity="1"
     objecttolerance="10"
     gridtolerance="10"
     guidetolerance="10"
     inkscape:pageopacity="0"
     inkscape:pageshadow="2"
     inkscape:window-width="846"
     inkscape:window-height="247"
     id="namedview4"
     showgrid="false"
     inkscape:zoom="0.28921569"
     inkscape:cx="528"
     inkscape:cy="408"
     inkscape:window-x="1498"
     inkscape:window-y="813"
     inkscape:window-maximized="0"
     inkscape:current-layer="g10" /><g
     id="g10"
     inkscape:groupmode="layer"
     inkscape:label="nesta_case30_ieee"
     transform="matrix(1.3333333,0,0,-1.3333333,0,816)"><path
       d="M 0,0 H 792 V 612 H 0 Z"
       style="fill:#ffffff;fill-opacity:1;fill-rule:nonzero;stroke:none"
       id="path12"
       inkscape:connector-curvature="0" /><path
       d="M 62.03,114.28 H 778.68 V 585.12 H 62.03 Z"
       style="fill:#ffffff;fill-opacity:1;fill-rule:nonzero;stroke:none"
       id="path14"
       inkscape:connector-curvature="0" /><text
       transform="matrix(0,1,1,0,78.600793,35.0925)"
       style="font-variant:normal;font-weight:normal;font-size:10px;font-family:'DejaVu Sans Mono';-inkscape-font-specification:DejaVuSansMono;writing-mode:lr-tb;fill:#000000;fill-opacity:1;fill-rule:nonzero;stroke:none"
       id="text18"><tspan
         x="0 6.02 24.08 30.1 48.16 54.18 60.200001"
         y="0"
         sodipodi:role="line"
         id="tspan16">8 9 12 </tspan></text>
<text
       transform="matrix(0,1,1,0,106.16425,59.155)"
       style="font-variant:normal;font-weight:normal;font-size:10px;font-family:'DejaVu Sans Mono';-inkscape-font-specification:DejaVuSansMono;writing-mode:lr-tb;fill:#000000;fill-opacity:1;fill-rule:nonzero;stroke:none"
       id="text22"><tspan
         x="0 6.02 12.04 24.08 30.1 36.119999"
         y="0"
         sodipodi:role="line"
         id="tspan20">10 11 </tspan></text>
<text
       transform="matrix(0,1,1,0,133.72772,35.0925)"
       style="font-variant:normal;font-weight:normal;font-size:10px;font-family:'DejaVu Sans Mono';-inkscape-font-specification:DejaVuSansMono;writing-mode:lr-tb;fill:#000000;fill-opacity:1;fill-rule:nonzero;stroke:none"
       id="text26"><tspan
         x="0 6.02 12.04 24.08 30.1 36.119999 48.16 54.18 60.200001"
         y="0"
         sodipodi:role="line"
         id="tspan24">13 27 29 </tspan></text>
<text
       transform="matrix(0,1,1,0,161.29118,35.0925)"
       style="font-variant:normal;font-weight:normal;font-size:10px;font-family:'DejaVu Sans Mono';-inkscape-font-specification:DejaVuSansMono;writing-mode:lr-tb;fill:#000000;fill-opacity:1;fill-rule:nonzero;stroke:none"
       id="text30"><tspan
         x="0 6.02 12.04 24.08 30.1 36.119999 48.16 54.18 60.200001"
         y="0"
         sodipodi:role="line"
         id="tspan28">12 13 29 </tspan></text>
<text
       transform="matrix(0,1,1,0,188.85464,35.0925)"
       style="font-variant:normal;font-weight:normal;font-size:10px;font-family:'DejaVu Sans Mono';-inkscape-font-specification:DejaVuSansMono;writing-mode:lr-tb;fill:#000000;fill-opacity:1;fill-rule:nonzero;stroke:none"
       id="text34"><tspan
         x="0 6.02 24.08 30.1 36.119999 48.16 54.18 60.200001"
         y="0"
         sodipodi:role="line"
         id="tspan32">7 13 27 </tspan></text>
<text
       transform="matrix(0,1,1,0,216.4181,35.0925)"
       style="font-variant:normal;font-weight:normal;font-size:10px;font-family:'DejaVu Sans Mono';-inkscape-font-specification:DejaVuSansMono;writing-mode:lr-tb;fill:#000000;fill-opacity:1;fill-rule:nonzero;stroke:none"
       id="text38"><tspan
         x="0 6.02 12.04 24.08 30.1 36.119999 48.16 54.18 60.200001"
         y="0"
         sodipodi:role="line"
         id="tspan36">11 12 29 </tspan></text>
<text
       transform="matrix(0,1,1,0,243.98156,35.0925)"
       style="font-variant:normal;font-weight:normal;font-size:10px;font-family:'DejaVu Sans Mono';-inkscape-font-specification:DejaVuSansMono;writing-mode:lr-tb;fill:#000000;fill-opacity:1;fill-rule:nonzero;stroke:none"
       id="text42"><tspan
         x="0 6.02 12.04 24.08 30.1 36.119999 48.16 54.18 60.200001"
         y="0"
         sodipodi:role="line"
         id="tspan40">17 18 22 </tspan></text>
<text
       transform="matrix(0,1,1,0,271.54502,35.0925)"
       style="font-variant:normal;font-weight:normal;font-size:10px;font-family:'DejaVu Sans Mono';-inkscape-font-specification:DejaVuSansMono;writing-mode:lr-tb;fill:#000000;fill-opacity:1;fill-rule:nonzero;stroke:none"
       id="text46"><tspan
         x="0 6.02 12.04 24.08 30.1 36.119999 48.16 54.18 60.200001"
         y="0"
         sodipodi:role="line"
         id="tspan44">22 26 27 </tspan></text>
<text
       transform="matrix(0,1,1,0,299.10849,35.0925)"
       style="font-variant:normal;font-weight:normal;font-size:10px;font-family:'DejaVu Sans Mono';-inkscape-font-specification:DejaVuSansMono;writing-mode:lr-tb;fill:#000000;fill-opacity:1;fill-rule:nonzero;stroke:none"
       id="text50"><tspan
         x="0 6.02 12.04 24.08 30.1 36.119999 48.16 54.18 60.200001"
         y="0"
         sodipodi:role="line"
         id="tspan48">18 21 22 </tspan></text>
<text
       transform="matrix(0,1,1,0,326.67195,35.0925)"
       style="font-variant:normal;font-weight:normal;font-size:10px;font-family:'DejaVu Sans Mono';-inkscape-font-specification:DejaVuSansMono;writing-mode:lr-tb;fill:#000000;fill-opacity:1;fill-rule:nonzero;stroke:none"
       id="text54"><tspan
         x="0 6.02 12.04 24.08 30.1 36.119999 48.16 54.18 60.200001"
         y="0"
         sodipodi:role="line"
         id="tspan52">21 22 27 </tspan></text>
<text
       transform="matrix(0,1,1,0,354.23541,35.0925)"
       style="font-variant:normal;font-weight:normal;font-size:10px;font-family:'DejaVu Sans Mono';-inkscape-font-specification:DejaVuSansMono;writing-mode:lr-tb;fill:#000000;fill-opacity:1;fill-rule:nonzero;stroke:none"
       id="text58"><tspan
         x="0 6.02 12.04 24.08 30.1 36.119999 48.16 54.18 60.200001"
         y="0"
         sodipodi:role="line"
         id="tspan56">20 21 27 </tspan></text>
<text
       transform="matrix(0,1,1,0,381.79887,35.0925)"
       style="font-variant:normal;font-weight:normal;font-size:10px;font-family:'DejaVu Sans Mono';-inkscape-font-specification:DejaVuSansMono;writing-mode:lr-tb;fill:#000000;fill-opacity:1;fill-rule:nonzero;stroke:none"
       id="text62"><tspan
         x="0 6.02 12.04 24.08 30.1 36.119999 48.16 54.18 60.200001"
         y="0"
         sodipodi:role="line"
         id="tspan60">19 20 27 </tspan></text>
<text
       transform="matrix(0,1,1,0,409.36233,35.0925)"
       style="font-variant:normal;font-weight:normal;font-size:10px;font-family:'DejaVu Sans Mono';-inkscape-font-specification:DejaVuSansMono;writing-mode:lr-tb;fill:#000000;fill-opacity:1;fill-rule:nonzero;stroke:none"
       id="text66"><tspan
         x="0 6.02 24.08 30.1 36.119999 48.16 54.18 60.200001"
         y="0"
         sodipodi:role="line"
         id="tspan64">6 28 30 </tspan></text>
<text
       transform="matrix(0,1,1,0,436.92579,35.0925)"
       style="font-variant:normal;font-weight:normal;font-size:10px;font-family:'DejaVu Sans Mono';-inkscape-font-specification:DejaVuSansMono;writing-mode:lr-tb;fill:#000000;fill-opacity:1;fill-rule:nonzero;stroke:none"
       id="text70"><tspan
         x="0 6.02 24.08 30.1 48.16 54.18 60.200001"
         y="0"
         sodipodi:role="line"
         id="tspan68">5 6 28 </tspan></text>
<text
       transform="matrix(0,1,1,0,464.48925,35.0925)"
       style="font-variant:normal;font-weight:normal;font-size:10px;font-family:'DejaVu Sans Mono';-inkscape-font-specification:DejaVuSansMono;writing-mode:lr-tb;fill:#000000;fill-opacity:1;fill-rule:nonzero;stroke:none"
       id="text74"><tspan
         x="0 6.02 24.08 30.1 48.16 54.18 60.200001"
         y="0"
         sodipodi:role="line"
         id="tspan72">4 5 28 </tspan></text>
<text
       transform="matrix(0,1,1,0,492.05272,35.0925)"
       style="font-variant:normal;font-weight:normal;font-size:10px;font-family:'DejaVu Sans Mono';-inkscape-font-specification:DejaVuSansMono;writing-mode:lr-tb;fill:#000000;fill-opacity:1;fill-rule:nonzero;stroke:none"
       id="text78"><tspan
         x="0 6.02 12.04 24.08 30.1 36.119999 48.16 54.18 60.200001"
         y="0"
         sodipodi:role="line"
         id="tspan76">25 26 28 </tspan></text>
<text
       transform="matrix(0,1,1,0,519.61618,35.0925)"
       style="font-variant:normal;font-weight:normal;font-size:10px;font-family:'DejaVu Sans Mono';-inkscape-font-specification:DejaVuSansMono;writing-mode:lr-tb;fill:#000000;fill-opacity:1;fill-rule:nonzero;stroke:none"
       id="text82"><tspan
         x="0 6.02 12.04 24.08 30.1 36.119999 48.16 54.18 60.200001"
         y="0"
         sodipodi:role="line"
         id="tspan80">24 25 28 </tspan></text>
<text
       transform="matrix(0,1,1,0,547.17964,35.0925)"
       style="font-variant:normal;font-weight:normal;font-size:10px;font-family:'DejaVu Sans Mono';-inkscape-font-specification:DejaVuSansMono;writing-mode:lr-tb;fill:#000000;fill-opacity:1;fill-rule:nonzero;stroke:none"
       id="text86"><tspan
         x="0 6.02 24.08 30.1 36.119999 48.16 54.18 60.200001"
         y="0"
         sodipodi:role="line"
         id="tspan84">3 28 29 </tspan></text>
<text
       transform="matrix(0,1,1,0,574.7431,35.0925)"
       style="font-variant:normal;font-weight:normal;font-size:10px;font-family:'DejaVu Sans Mono';-inkscape-font-specification:DejaVuSansMono;writing-mode:lr-tb;fill:#000000;fill-opacity:1;fill-rule:nonzero;stroke:none"
       id="text90"><tspan
         x="0 6.02 24.08 30.1 48.16 54.18 60.200001"
         y="0"
         sodipodi:role="line"
         id="tspan88">2 3 28 </tspan></text>
<text
       transform="matrix(0,1,1,0,602.30656,59.155)"
       style="font-variant:normal;font-weight:normal;font-size:10px;font-family:'DejaVu Sans Mono';-inkscape-font-specification:DejaVuSansMono;writing-mode:lr-tb;fill:#000000;fill-opacity:1;fill-rule:nonzero;stroke:none"
       id="text94"><tspan
         x="0 6.02 12.04 24.08 30.1 36.119999"
         y="0"
         sodipodi:role="line"
         id="tspan92">14 15 </tspan></text>
<text
       transform="matrix(0,1,1,0,629.87002,35.0925)"
       style="font-variant:normal;font-weight:normal;font-size:10px;font-family:'DejaVu Sans Mono';-inkscape-font-specification:DejaVuSansMono;writing-mode:lr-tb;fill:#000000;fill-opacity:1;fill-rule:nonzero;stroke:none"
       id="text98"><tspan
         x="0 6.02 24.08 30.1 36.119999 48.16 54.18 60.200001"
         y="0"
         sodipodi:role="line"
         id="tspan96">1 29 30 </tspan></text>
<text
       transform="matrix(0,1,1,0,657.43349,35.0925)"
       style="font-variant:normal;font-weight:normal;font-size:10px;font-family:'DejaVu Sans Mono';-inkscape-font-specification:DejaVuSansMono;writing-mode:lr-tb;fill:#000000;fill-opacity:1;fill-rule:nonzero;stroke:none"
       id="text102"><tspan
         x="0 6.02 12.04 24.08 30.1 36.119999 48.16 54.18 60.200001"
         y="0"
         sodipodi:role="line"
         id="tspan100">23 26 30 </tspan></text>
<text
       transform="matrix(0,1,1,0,684.99695,11.03)"
       style="font-variant:normal;font-weight:normal;font-size:10px;font-family:'DejaVu Sans Mono';-inkscape-font-specification:DejaVuSansMono;writing-mode:lr-tb;fill:#000000;fill-opacity:1;fill-rule:nonzero;stroke:none"
       id="text106"><tspan
         x="0 6.02 12.04 24.08 30.1 36.119999 48.16 54.18 60.200001 72.239998 78.260002 84.279999"
         y="0"
         sodipodi:role="line"
         id="tspan104">26 27 28 30 </tspan></text>
<text
       transform="matrix(0,1,1,0,712.56041,11.03)"
       style="font-variant:normal;font-weight:normal;font-size:10px;font-family:'DejaVu Sans Mono';-inkscape-font-specification:DejaVuSansMono;writing-mode:lr-tb;fill:#000000;fill-opacity:1;fill-rule:nonzero;stroke:none"
       id="text110"><tspan
         x="0 6.02 12.04 24.08 30.1 36.119999 48.16 54.18 60.200001 72.239998 78.260002 84.279999"
         y="0"
         sodipodi:role="line"
         id="tspan108">27 28 29 30 </tspan></text>
<text
       transform="matrix(0,1,1,0,740.12387,35.0925)"
       style="font-variant:normal;font-weight:normal;font-size:10px;font-family:'DejaVu Sans Mono';-inkscape-font-specification:DejaVuSansMono;writing-mode:lr-tb;fill:#000000;fill-opacity:1;fill-rule:nonzero;stroke:none"
       id="text114"><tspan
         x="0 6.02 12.04 24.08 30.1 36.119999 48.16 54.18 60.200001"
         y="0"
         sodipodi:role="line"
         id="tspan112">15 27 28 </tspan></text>
<text
       transform="matrix(0,1,1,0,767.68733,59.155)"
       style="font-variant:normal;font-weight:normal;font-size:10px;font-family:'DejaVu Sans Mono';-inkscape-font-specification:DejaVuSansMono;writing-mode:lr-tb;fill:#000000;fill-opacity:1;fill-rule:nonzero;stroke:none"
       id="text118"><tspan
         x="0 6.02 12.04 24.08 30.1 36.119999"
         y="0"
         sodipodi:role="line"
         id="tspan116">16 26 </tspan></text>
<path
       d="m 62.03,114.28 h -3.5"
       style="fill:#000000;fill-opacity:1;fill-rule:nonzero;stroke:#000000;stroke-width:0.80000001;stroke-linecap:butt;stroke-linejoin:round;stroke-miterlimit:10;stroke-dasharray:none;stroke-opacity:1"
       id="path120"
       inkscape:connector-curvature="0" /><text
       transform="matrix(1,0,0,-1,24.951875,110.45188)"
       style="font-variant:normal;font-weight:normal;font-size:10px;font-family:'DejaVu Sans Mono';-inkscape-font-specification:DejaVuSansMono;writing-mode:lr-tb;fill:#000000;fill-opacity:1;fill-rule:nonzero;stroke:none"
       id="text124"><tspan
         x="0 6.02 12.04 18.059999 24.08"
         y="0"
         sodipodi:role="line"
         id="tspan122">-38.0</tspan></text>
<path
       d="m 62.03,192.75333 h -3.5"
       style="fill:#000000;fill-opacity:1;fill-rule:nonzero;stroke:#000000;stroke-width:0.80000001;stroke-linecap:butt;stroke-linejoin:round;stroke-miterlimit:10;stroke-dasharray:none;stroke-opacity:1"
       id="path126"
       inkscape:connector-curvature="0" /><text
       transform="matrix(1,0,0,-1,24.951875,188.92521)"
       style="font-variant:normal;font-weight:normal;font-size:10px;font-family:'DejaVu Sans Mono';-inkscape-font-specification:DejaVuSansMono;writing-mode:lr-tb;fill:#000000;fill-opacity:1;fill-rule:nonzero;stroke:none"
       id="text130"><tspan
         x="0 6.02 12.04 18.059999 24.08"
         y="0"
         sodipodi:role="line"
         id="tspan128">-19.0</tspan></text>
<path
       d="m 62.03,271.22667 h -3.5"
       style="fill:#000000;fill-opacity:1;fill-rule:nonzero;stroke:#000000;stroke-width:0.80000001;stroke-linecap:butt;stroke-linejoin:round;stroke-miterlimit:10;stroke-dasharray:none;stroke-opacity:1"
       id="path132"
       inkscape:connector-curvature="0" /><text
       transform="matrix(1,0,0,-1,36.983125,267.39854)"
       style="font-variant:normal;font-weight:normal;font-size:10px;font-family:'DejaVu Sans Mono';-inkscape-font-specification:DejaVuSansMono;writing-mode:lr-tb;fill:#000000;fill-opacity:1;fill-rule:nonzero;stroke:none"
       id="text136"><tspan
         x="0 6.02 12.04"
         y="0"
         sodipodi:role="line"
         id="tspan134">0.0</tspan></text>
<path
       d="m 62.03,349.7 h -3.5"
       style="fill:#000000;fill-opacity:1;fill-rule:nonzero;stroke:#000000;stroke-width:0.80000001;stroke-linecap:butt;stroke-linejoin:round;stroke-miterlimit:10;stroke-dasharray:none;stroke-opacity:1"
       id="path138"
       inkscape:connector-curvature="0" /><text
       transform="matrix(1,0,0,-1,30.9675,345.87187)"
       style="font-variant:normal;font-weight:normal;font-size:10px;font-family:'DejaVu Sans Mono';-inkscape-font-specification:DejaVuSansMono;writing-mode:lr-tb;fill:#000000;fill-opacity:1;fill-rule:nonzero;stroke:none"
       id="text142"><tspan
         x="0 6.02 12.04 18.059999"
         y="0"
         sodipodi:role="line"
         id="tspan140">19.0</tspan></text>
<path
       d="m 62.03,428.17333 h -3.5"
       style="fill:#000000;fill-opacity:1;fill-rule:nonzero;stroke:#000000;stroke-width:0.80000001;stroke-linecap:butt;stroke-linejoin:round;stroke-miterlimit:10;stroke-dasharray:none;stroke-opacity:1"
       id="path144"
       inkscape:connector-curvature="0" /><text
       transform="matrix(1,0,0,-1,30.9675,424.34521)"
       style="font-variant:normal;font-weight:normal;font-size:10px;font-family:'DejaVu Sans Mono';-inkscape-font-specification:DejaVuSansMono;writing-mode:lr-tb;fill:#000000;fill-opacity:1;fill-rule:nonzero;stroke:none"
       id="text148"><tspan
         x="0 6.02 12.04 18.059999"
         y="0"
         sodipodi:role="line"
         id="tspan146">38.0</tspan></text>
<path
       d="m 62.03,506.64667 h -3.5"
       style="fill:#000000;fill-opacity:1;fill-rule:nonzero;stroke:#000000;stroke-width:0.80000001;stroke-linecap:butt;stroke-linejoin:round;stroke-miterlimit:10;stroke-dasharray:none;stroke-opacity:1"
       id="path150"
       inkscape:connector-curvature="0" /><text
       transform="matrix(1,0,0,-1,30.9675,502.81854)"
       style="font-variant:normal;font-weight:normal;font-size:10px;font-family:'DejaVu Sans Mono';-inkscape-font-specification:DejaVuSansMono;writing-mode:lr-tb;fill:#000000;fill-opacity:1;fill-rule:nonzero;stroke:none"
       id="text154"><tspan
         x="0 6.02 12.04 18.059999"
         y="0"
         sodipodi:role="line"
         id="tspan152">57.0</tspan></text>
<path
       d="m 62.03,585.12 h -3.5"
       style="fill:#000000;fill-opacity:1;fill-rule:nonzero;stroke:#000000;stroke-width:0.80000001;stroke-linecap:butt;stroke-linejoin:round;stroke-miterlimit:10;stroke-dasharray:none;stroke-opacity:1"
       id="path156"
       inkscape:connector-curvature="0" /><text
       transform="matrix(1,0,0,-1,30.9675,581.29188)"
       style="font-variant:normal;font-weight:normal;font-size:10px;font-family:'DejaVu Sans Mono';-inkscape-font-specification:DejaVuSansMono;writing-mode:lr-tb;fill:#000000;fill-opacity:1;fill-rule:nonzero;stroke:none"
       id="text160"><tspan
         x="0 6.02 12.04 18.059999"
         y="0"
         sodipodi:role="line"
         id="tspan158">76.0</tspan></text>
<text
       transform="matrix(0,1,1,0,18.795625,223.37187)"
       style="font-variant:normal;font-weight:normal;font-size:10px;font-family:'DejaVu Sans Mono';-inkscape-font-specification:DejaVuSansMono;writing-mode:lr-tb;fill:#000000;fill-opacity:1;fill-rule:nonzero;stroke:none"
       id="text164"><tspan
         x="0 6.02 12.04 18.059999 24.08 30.1 36.119999 42.139999 48.16 54.18 60.200001 66.220001 72.239998 78.260002 84.279999 90.300003 96.32 102.34 108.36 114.38 120.4 126.42 132.44 138.46001 144.48 150.5 156.52 162.53999 168.56 174.58 180.60001 186.62 192.64 198.66 204.67999 210.7 216.72 222.74001 228.75999 234.78 240.8 246.82001"
         y="0"
         sodipodi:role="line"
         id="tspan162">Change in number of variables due to merge</tspan></text>
<g
       id="g166"><g
         id="g168"
         clip-path="url(#clipPath172)"><path
           d="m 130.93865,114.28 v 90.86386 h 27.56346 V 114.28"
           style="fill:none;stroke:#008000;stroke-width:1.5;stroke-linecap:butt;stroke-linejoin:round;stroke-miterlimit:10;stroke-dasharray:none;stroke-opacity:1"
           id="path174"
           inkscape:connector-curvature="0" /><path
           d="m 144.72038,205.14386 v 16.5207 h 41.3452 V 114.28"
           style="fill:none;stroke:#008000;stroke-width:1.5;stroke-linecap:butt;stroke-linejoin:round;stroke-miterlimit:10;stroke-dasharray:none;stroke-opacity:1"
           id="path176"
           inkscape:connector-curvature="0" /><path
           d="m 165.39298,221.66456 v 16.5207 h 48.23606 V 114.28"
           style="fill:none;stroke:#008000;stroke-width:1.5;stroke-linecap:butt;stroke-linejoin:round;stroke-miterlimit:10;stroke-dasharray:none;stroke-opacity:1"
           id="path178"
           inkscape:connector-curvature="0" /><path
           d="m 682.20789,114.28 v 0 h 27.56346 v 0"
           style="fill:none;stroke:#008000;stroke-width:1.5;stroke-linecap:butt;stroke-linejoin:round;stroke-miterlimit:10;stroke-dasharray:none;stroke-opacity:1"
           id="path180"
           inkscape:connector-curvature="0" /><path
           d="m 654.64442,114.28 v 123.90526 h 41.34519 V 114.28"
           style="fill:none;stroke:#008000;stroke-width:1.5;stroke-linecap:butt;stroke-linejoin:round;stroke-miterlimit:10;stroke-dasharray:none;stroke-opacity:1"
           id="path182"
           inkscape:connector-curvature="0" /><path
           d="m 627.08096,114.28 v 140.42596 h 48.23606 v -16.5207"
           style="fill:none;stroke:#008000;stroke-width:1.5;stroke-linecap:butt;stroke-linejoin:round;stroke-miterlimit:10;stroke-dasharray:none;stroke-opacity:1"
           id="path184"
           inkscape:connector-curvature="0" /></g></g><g
       id="g186"><g
         id="g188"
         clip-path="url(#clipPath192)"><path
           d="m 296.31942,114.28 v 90.86386 h 27.56347 V 114.28"
           style="fill:none;stroke:#ff0000;stroke-width:1.5;stroke-linecap:butt;stroke-linejoin:round;stroke-miterlimit:10;stroke-dasharray:none;stroke-opacity:1"
           id="path194"
           inkscape:connector-curvature="0" /><path
           d="m 268.75596,114.28 v 107.38456 h 41.34519 v -16.5207"
           style="fill:none;stroke:#ff0000;stroke-width:1.5;stroke-linecap:butt;stroke-linejoin:round;stroke-miterlimit:10;stroke-dasharray:none;stroke-opacity:1"
           id="path196"
           inkscape:connector-curvature="0" /><path
           d="m 241.1925,114.28 v 123.90526 h 48.23606 v -16.5207"
           style="fill:none;stroke:#ff0000;stroke-width:1.5;stroke-linecap:butt;stroke-linejoin:round;stroke-miterlimit:10;stroke-dasharray:none;stroke-opacity:1"
           id="path198"
           inkscape:connector-curvature="0" /></g></g><g
       id="g200"><g
         id="g202"
         clip-path="url(#clipPath206)"><path
           d="m 351.44635,114.28 v 90.86386 h 27.56346 V 114.28"
           style="fill:none;stroke:#00bfbf;stroke-width:1.5;stroke-linecap:butt;stroke-linejoin:round;stroke-miterlimit:10;stroke-dasharray:none;stroke-opacity:1"
           id="path208"
           inkscape:connector-curvature="0" /></g></g><g
       id="g210"><g
         id="g212"
         clip-path="url(#clipPath216)"><path
           d="m 406.57327,114.28 v 90.86386 h 27.56346 V 114.28"
           style="fill:none;stroke:#bf00bf;stroke-width:1.5;stroke-linecap:butt;stroke-linejoin:round;stroke-miterlimit:10;stroke-dasharray:none;stroke-opacity:1"
           id="path218"
           inkscape:connector-curvature="0" /><path
           d="m 420.355,205.14386 v 16.5207 h 41.34519 V 114.28"
           style="fill:none;stroke:#bf00bf;stroke-width:1.5;stroke-linecap:butt;stroke-linejoin:round;stroke-miterlimit:10;stroke-dasharray:none;stroke-opacity:1"
           id="path220"
           inkscape:connector-curvature="0" /></g></g><g
       id="g222"><g
         id="g224"
         clip-path="url(#clipPath228)"><path
           d="m 489.26365,114.28 v 90.86386 h 27.56346 V 114.28"
           style="fill:none;stroke:#bfbf00;stroke-width:1.5;stroke-linecap:butt;stroke-linejoin:round;stroke-miterlimit:10;stroke-dasharray:none;stroke-opacity:1"
           id="path230"
           inkscape:connector-curvature="0" /></g></g><g
       id="g232"><g
         id="g234"
         clip-path="url(#clipPath238)"><path
           d="m 103.37519,114.28 v 214.76912 h 86.13582 v -90.86386"
           style="fill:none;stroke:#000000;stroke-width:1.5;stroke-linecap:butt;stroke-linejoin:round;stroke-miterlimit:10;stroke-dasharray:none;stroke-opacity:1"
           id="path240"
           inkscape:connector-curvature="0" /><path
           d="M 75.811731,114.28 V 444.69403 H 146.4431 V 329.04912"
           style="fill:none;stroke:#000000;stroke-width:1.5;stroke-linecap:butt;stroke-linejoin:round;stroke-miterlimit:10;stroke-dasharray:none;stroke-opacity:1"
           id="path242"
           inkscape:connector-curvature="0" /><path
           d="m 265.31053,238.18526 v 82.60351 h 99.91755 V 205.14386"
           style="fill:none;stroke:#000000;stroke-width:1.5;stroke-linecap:butt;stroke-linejoin:round;stroke-miterlimit:10;stroke-dasharray:none;stroke-opacity:1"
           id="path244"
           inkscape:connector-curvature="0" /><path
           d="m 544.39058,114.28 v 90.86386 h 27.56346 V 114.28"
           style="fill:none;stroke:#000000;stroke-width:1.5;stroke-linecap:butt;stroke-linejoin:round;stroke-miterlimit:10;stroke-dasharray:none;stroke-opacity:1"
           id="path246"
           inkscape:connector-curvature="0" /><path
           d="m 651.19899,254.70596 v 16.52071 h 86.13582 V 114.28"
           style="fill:none;stroke:#000000;stroke-width:1.5;stroke-linecap:butt;stroke-linejoin:round;stroke-miterlimit:10;stroke-dasharray:none;stroke-opacity:1"
           id="path248"
           inkscape:connector-curvature="0" /><path
           d="m 599.5175,114.28 v 247.81053 h 94.7494 v -90.86386"
           style="fill:none;stroke:#000000;stroke-width:1.5;stroke-linecap:butt;stroke-linejoin:round;stroke-miterlimit:10;stroke-dasharray:none;stroke-opacity:1"
           id="path250"
           inkscape:connector-curvature="0" /><path
           d="m 646.8922,362.09053 v 16.5207 H 764.89827 V 114.28"
           style="fill:none;stroke:#000000;stroke-width:1.5;stroke-linecap:butt;stroke-linejoin:round;stroke-miterlimit:10;stroke-dasharray:none;stroke-opacity:1"
           id="path252"
           inkscape:connector-curvature="0" /><path
           d="M 558.17231,205.14386 V 452.95439 H 705.89523 V 378.61123"
           style="fill:none;stroke:#000000;stroke-width:1.5;stroke-linecap:butt;stroke-linejoin:round;stroke-miterlimit:10;stroke-dasharray:none;stroke-opacity:1"
           id="path254"
           inkscape:connector-curvature="0" /><path
           d="m 503.04538,205.14386 v 313.89333 h 128.98839 v -66.0828"
           style="fill:none;stroke:#000000;stroke-width:1.5;stroke-linecap:butt;stroke-linejoin:round;stroke-miterlimit:10;stroke-dasharray:none;stroke-opacity:1"
           id="path256"
           inkscape:connector-curvature="0" /><path
           d="M 441.0276,221.66456 V 613 m 126.51198,0 v -93.96281"
           style="fill:none;stroke:#000000;stroke-width:1.5;stroke-linecap:butt;stroke-linejoin:round;stroke-miterlimit:10;stroke-dasharray:none;stroke-opacity:1"
           id="path258"
           inkscape:connector-curvature="0" /><path
           d="M 315.2693,320.78877 V 613"
           style="fill:none;stroke:#000000;stroke-width:1.5;stroke-linecap:butt;stroke-linejoin:round;stroke-miterlimit:10;stroke-dasharray:none;stroke-opacity:1"
           id="path260"
           inkscape:connector-curvature="0" /><path
           d="M 111.12742,444.69403 V 613"
           style="fill:none;stroke:#000000;stroke-width:1.5;stroke-linecap:butt;stroke-linejoin:round;stroke-miterlimit:10;stroke-dasharray:none;stroke-opacity:1"
           id="path262"
           inkscape:connector-curvature="0" /></g></g><g
       id="g264"><g
         id="g266"
         clip-path="url(#clipPath270)"><path
           d="M 62.03,271.22667 H 778.68"
           style="fill:none;stroke:#000000;stroke-width:1.5;stroke-linecap:butt;stroke-linejoin:round;stroke-miterlimit:10;stroke-dasharray:5.55, 2.4;stroke-dashoffset:0;stroke-opacity:1"
           id="path272"
           inkscape:connector-curvature="0" /></g></g><g
       id="g274"><text
         transform="matrix(1,0,0,-1,257.93312,591.12)"
         style="font-variant:normal;font-weight:normal;font-size:12px;font-family:'DejaVu Sans Mono';-inkscape-font-specification:DejaVuSansMono;writing-mode:lr-tb;fill:#000000;fill-opacity:1;fill-rule:nonzero;stroke:none"
         id="text278"><tspan
           x="0 7.224 14.448 21.672001 28.896 36.119999 43.344002 50.568001 57.792 65.015999 72.239998 79.463997 86.688004 93.912003 101.136 108.36 115.584 122.808 130.032 137.256 144.48 151.70399 158.92799 166.15199 173.37601 180.60001 187.82401 195.048 202.272 209.496 216.72 223.944 231.168 238.392 245.616 252.84 260.064 267.28799 274.51199 281.73599 288.95999 296.18399 303.40799 310.63199 317.85599"
           y="0"
           sodipodi:role="line"
           id="tspan276">Clique Merge Dendrogram for nesta_case30_ieee</tspan></text>
</g></g></svg>